<?xml version="1.0" standalone="no"?><!DOCTYPE svg PUBLIC "-//W3C//DTD SVG 1.1//EN" "http://www.w3.org/Graphics/SVG/1.1/DTD/svg11.dtd"><svg t="1493576891422" class="icon" style="" viewBox="0 0 1024 1024" version="1.1" xmlns="http://www.w3.org/2000/svg" p-id="5107" xmlns:xlink="http://www.w3.org/1999/xlink" width="200" height="200"><defs><style type="text/css"></style></defs><path d="M541.21472 29.7728C476.41088 25.50784 432.1792 40.41216 400 53.65248c-90.28096 37.12-153.25184 104.448-182.50752 202.0608-47.00672 156.81536 60.90752 325.11488 165.12512 358.50752-37.65248 17.37728-75.32544 34.7648-112.97792 52.1472C171.23328 727.76192 63.31392 849.79712 58.88 1000.96c18.83136 0 37.66272 0 56.49408 0 23.63904-170.92608 139.35104-286.89408 288.9728-332.43136 248.89344-75.74528 498.05824 122.46528 510.59712 332.43136 18.83136 0 37.6576 0 56.48896 0-11.17696-171.17184-168.40704-355.72736-321.56672-382.40256-0.72704-1.44896-1.44896-2.89792-2.176-4.34688 125.696-40.04864 221.02528-229.95456 154.2656-393.2672-43.26912-105.87136-131.33312-170.24512-260.72576-191.20128-3.82464-0.61952-29.696 54.45632-27.17696 54.5792 182.18496 8.66304 318.11584 181.888 233.57952 371.27168-36.6848 82.19648-113.3824 129.23904-217.27744 145.57696-175.26784 27.55072-324.88448-179.6096-258.54976-349.80864 28.61568-73.43104 89.46176-132.43904 167.30112-156.4416 23.94112-7.28576 39.33696-11.45344 75.09504-10.7264C516.74112 84.25472 545.00864 30.0288 541.21472 29.7728z" p-id="5108"></path></svg>