<?xml version="1.0" standalone="no"?><!DOCTYPE svg PUBLIC "-//W3C//DTD SVG 1.1//EN" "http://www.w3.org/Graphics/SVG/1.1/DTD/svg11.dtd"><svg t="1493572787766" class="icon" style="" viewBox="0 0 1024 1024" version="1.1" xmlns="http://www.w3.org/2000/svg" p-id="4381" xmlns:xlink="http://www.w3.org/1999/xlink" width="200" height="200"><defs><style type="text/css"></style></defs><path d="M258.5 411.1c0 32.1 26.9 58 60 58s60-26 60-58-26.9-58-60-58-60 25.9-60 58z m192.9 0c0 32.1 26.9 58 60 58s60-26 60-58-26.9-58-60-58-60 25.9-60 58z m192.9 0c0 32.1 26.9 58 60 58s60-26 60-58-26.9-58-60-58c-33.2-0.1-60 25.9-60 58zM511.4 100.2C284.2 100.2 100 239.4 100 411.1c0 94.5 55.8 179.1 143.7 236.1l31.5 164.2c0.3 1.8 0.9 3.6 1.6 5.2v0.1c0.2 0.3 0.3 0.7 0.5 1.1 0 0.1 0.1 0.1 0.1 0.2 0.2 0.3 0.3 0.7 0.5 0.9 0 0.1 0.1 0.2 0.2 0.2 0.2 0.2 0.3 0.6 0.5 0.8 0.1 0.1 0.2 0.2 0.2 0.3 0.2 0.2 0.3 0.5 0.4 0.7 0.1 0.1 0.1 0.2 0.2 0.2 0.1 0.1 0.1 0.2 0.2 0.2 0.1 0.2 0.3 0.2 0.3 0.4 0.2 0.2 0.3 0.5 0.6 0.7l0.1 0.1c2.7 3.2 6 5.6 9.7 7.1 0.1 0 0.2 0.1 0.3 0.1 0.3 0.1 0.5 0.2 0.8 0.3 3.7 1.4 7.8 2 11.9 1.5h0.3c0.3 0 0.5-0.1 0.8-0.1s0.4-0.1 0.7-0.1h0.5c0.3-0.1 0.7-0.2 1-0.2h0.1c3-0.7 6-1.9 8.7-3.7L474 720.8c12.3 0.8 24.8 1.2 37.3 1.2 227.2 0 411.4-139.2 411.4-310.9 0.1-171.7-184.1-310.9-411.3-310.9z m259.2 491.5c-33.1 25-71.9 44.8-115.3 58.6-45.5 14.5-93.9 21.9-144 21.9-14 0-27.9-0.6-41.6-1.7-6-0.7-12.3 0.7-17.6 4.2l-133.6 89.7-26.3-136.9c-1.4-7.3-6-13.2-12.1-16.7-9.8-6-19.1-12.4-28.1-19.1-32.1-24.3-57.3-52.3-74.6-83.3s-26.1-63.8-26.1-97.3 8.8-66.3 26.1-97.3 42.4-59 74.6-83.3c33.1-25 71.9-44.8 115.3-58.6 45.5-14.5 93.9-21.9 144-21.9s98.5 7.4 144 21.9c43.4 13.8 82.1 33.6 115.3 58.6 32.1 24.3 57.3 52.3 74.6 83.3 17.3 31 26.1 63.8 26.1 97.3s-8.8 66.3-26.1 97.3c-17.3 30.9-42.4 59-74.6 83.3z" p-id="4382" fill="#8a8a8a"></path></svg>