<?xml version="1.0" standalone="no"?><!DOCTYPE svg PUBLIC "-//W3C//DTD SVG 1.1//EN" "http://www.w3.org/Graphics/SVG/1.1/DTD/svg11.dtd"><svg t="1493555849185" class="icon" style="" viewBox="0 0 1024 1024" version="1.1" xmlns="http://www.w3.org/2000/svg" p-id="995" xmlns:xlink="http://www.w3.org/1999/xlink" width="200" height="200"><defs><style type="text/css"></style></defs><path d="M691.881 249.91c-122.036-122.092-319.94-122.092-442.033 0s-122.093 319.997 0 442.033c56.558 56.574 134.7 91.567 221.017 91.567 86.316 0 164.458-34.994 221.016-91.567 56.575-56.558 91.568-134.701 91.568-221.017 0-86.316-34.994-164.458-91.567-221.016zM181.8 759.992c-74.010-73.991-119.787-176.22-119.787-289.14 0-225.802 183.050-408.852 408.852-408.852 225.803 0 408.852 183.050 408.852 408.852 0 112.92-45.778 215.149-119.787 289.139-73.985 73.966-176.183 119.713-289.065 119.713-112.883 0-215.080-45.747-289.065-119.713zM945.517 945.579c-10.099 10.115-24.058 16.372-39.48 16.372s-29.381-6.257-39.479-16.371l-78.903-78.959c-10.097-10.097-16.342-24.045-16.342-39.452 0-30.814 24.98-55.792 55.792-55.792 15.406 0 29.355 6.245 39.452 16.341l78.958 78.903c10.142 10.087 16.418 24.050 16.418 39.479s-6.277 29.393-16.416 39.477z" p-id="996" fill="#8a8a8a"></path></svg>