<?xml version="1.0" standalone="no"?><!DOCTYPE svg PUBLIC "-//W3C//DTD SVG 1.1//EN" "http://www.w3.org/Graphics/SVG/1.1/DTD/svg11.dtd"><svg t="1493572762266" class="icon" style="" viewBox="0 0 1024 1024" version="1.1" xmlns="http://www.w3.org/2000/svg" p-id="3689" xmlns:xlink="http://www.w3.org/1999/xlink" width="200" height="200"><defs><style type="text/css"></style></defs><path d="M943.515152 329.69697c-3.878788-11.636364-11.959273-18.424242-24.242424-20.363636l-262.787879-40.727273L540.121212 17.454545c-2.586182-5.171394-6.46497-9.374061-11.636364-12.606061s-10.666667-4.848485-16.484848-4.848485c-13.575758 0-22.949818 5.818182-28.121212 17.454545L365.575758 267.636364 102.787879 307.393939c-12.283152 1.939394-20.525576 8.889212-24.727273 20.848485S76.283152 350.707394 85.333333 359.757576l190.060606 195.878788-45.575758 276.363636c-1.939394 12.92897 2.424242 23.110788 13.090909 30.545455s21.495273 7.919515 32.484848 1.454545l234.666667-128.969697 234.666667 129.939394c1.292606 0.646788 2.747152 1.292606 4.363636 1.939394s3.232 1.131636 4.848485 1.454545 3.393939 0.484848 5.333333 0.484848l0.969697 0c5.171394 0 10.181818-1.454545 15.030303-4.363636s8.727273-6.625939 11.636364-11.151515 4.363636-9.69697 4.363636-15.515152c0-3.878788-0.646788-7.434667-1.939394-10.666667l-43.636364-270.545455 191.030303-194.909091c3.878788-4.525576 6.46497-9.53503 7.757576-15.030303S945.454545 335.515152 943.515152 329.69697z" p-id="3690"  fill="#8a8a8a"></path></svg>