<?xml version="1.0" standalone="no"?><!DOCTYPE svg PUBLIC "-//W3C//DTD SVG 1.1//EN" "http://www.w3.org/Graphics/SVG/1.1/DTD/svg11.dtd"><svg t="1493576955260" class="icon" style="" viewBox="0 0 1024 1024" version="1.1" xmlns="http://www.w3.org/2000/svg" p-id="6485" xmlns:xlink="http://www.w3.org/1999/xlink" width="200" height="200"><defs><style type="text/css"></style></defs><path d="M821.908995 489.388924 425.926208 489.388924c-12.641975 0-22.863915 10.22194-22.863915 22.863915 0 12.569735 10.22194 22.827795 22.863915 22.827795l394.537989 0L737.785679 617.650794c-8.921623 8.921623-8.921623 23.369594 0 32.327337 8.921623 8.957743 23.369594 8.957743 32.327337 0l134.980176-138.44769-134.980176-138.44769c-4.478871-4.478871-10.29418-6.718307-16.145608-6.718307s-11.702857 2.239436-16.145608 6.718307c-8.921623 8.921623-8.921623 23.369594 0 32.291217L821.908995 489.388924zM219.97037 877.389206l388.469841 0c25.247831 0 45.727831-20.44388 45.727831-45.727831l0-205.486279-46.01679 0 0 177.673933c0 15.24261-12.389136 27.667866-27.631746 27.667866L248.649594 831.516896c-15.24261 0-27.631746-12.425256-27.631746-27.667866L220.29545 219.862011c0-15.24261 12.389136-27.631746 27.667866-27.631746l332.59231 0c15.24261 0 27.631746 12.353016 27.631746 27.631746l0 178.685291 46.01679-0.07224L654.204162 192.266384c0-25.211711-20.44388-45.691711-45.727831-45.691711L219.97037 146.574674c-25.247831 0-45.727831 20.44388-45.727831 45.691711l0 639.431111C174.27866 856.945326 194.72254 877.389206 219.97037 877.389206z" p-id="6486"></path></svg>