<?xml version="1.0" standalone="no"?><!DOCTYPE svg PUBLIC "-//W3C//DTD SVG 1.1//EN" "http://www.w3.org/Graphics/SVG/1.1/DTD/svg11.dtd"><svg t="1493572743272" class="icon" style="" viewBox="0 0 1024 1024" version="1.1" xmlns="http://www.w3.org/2000/svg" p-id="2955" xmlns:xlink="http://www.w3.org/1999/xlink" width="200" height="200"><defs><style type="text/css"></style></defs><path d="M1009.330087 281.6c-29.473391-82.877217-103.223652-145.808696-192.578783-164.218435A295.557565 295.557565 0 0 0 757.51513 111.304348c-107.965217 0-204.354783 62.73113-245.51513 154.512695C470.839652 174.035478 374.427826 111.304348 266.48487 111.304348c-19.656348 0-39.557565 2.048-59.302957 6.077217C117.893565 135.791304 44.143304 198.722783 14.692174 281.6c-23.017739 64.912696-18.877217 131.116522 11.909565 191.510261 41.73913 81.808696 287.165217 294.956522 429.81287 414.697739a86.706087 86.706087 0 0 0 55.607652 20.079304c20.390957 0 40.136348-7.123478 55.607652-20.079304 142.647652-119.718957 388.006957-332.889043 429.81287-414.72 30.786783-60.371478 34.927304-126.575304 11.909565-191.488z" p-id="2956" fill="#8a8a8a"></path></svg>