<?xml version="1.0" standalone="no"?><!DOCTYPE svg PUBLIC "-//W3C//DTD SVG 1.1//EN" "http://www.w3.org/Graphics/SVG/1.1/DTD/svg11.dtd"><svg t="1493576922072" class="icon" style="" viewBox="0 0 1024 1024" version="1.1" xmlns="http://www.w3.org/2000/svg" p-id="5827" xmlns:xlink="http://www.w3.org/1999/xlink" width="200" height="200"><defs><style type="text/css"></style></defs><path d="M802.8 173.55a32 32 0 1 0-41.94 48.31c86.06 74.77 135.44 180.45 135.44 290s-49.41 215.3-135.53 290.06a32 32 0 1 0 41.94 48.34C902.86 763.32 960.3 640 960.3 511.85s-57.41-251.37-157.5-338.3z" p-id="5828"></path><path d="M707 308.21a32 32 0 1 0-41.94 48.31c46.84 40.7 72.66 95.86 72.66 155.33S711.89 626.55 665 667.26a32 32 0 1 0 41.94 48.34c60.25-52.28 94.81-126.55 94.81-203.75S767.2 360.48 707 308.21zM544.33 103.91c-17.91-10.5-39.41-10.66-60 1L235 276.4H124.3c-33.41 0-60.59 28.94-60.59 64.5v342c0 35.58 27.19 64.52 60.59 64.52h110.47l252.09 173a57.22 57.22 0 0 0 57.5-0.56c19.34-11.33 31.34-33 31.34-56.52v-702.9c0-23.54-12.03-45.2-31.37-56.53z m-33 755.86l-246.16-169A58 58 0 0 0 237 683.4H127.67a1.3 1.3 0 0 0 0-0.52l0.41-342.48H237c9.81 0 19.56-2.56 30.75-9l244-167.8z" p-id="5829"></path></svg>