<?xml version="1.0" standalone="no"?><!DOCTYPE svg PUBLIC "-//W3C//DTD SVG 1.1//EN" "http://www.w3.org/Graphics/SVG/1.1/DTD/svg11.dtd"><svg t="1493569952550" class="icon" style="" viewBox="0 0 1024 1024" version="1.1" xmlns="http://www.w3.org/2000/svg" p-id="1755" xmlns:xlink="http://www.w3.org/1999/xlink" width="200" height="200"><defs><style type="text/css"></style></defs><path d="M512.127029 709.960692C403.350862 709.960692 314.864425 621.694545 314.864425 513.202377 314.864425 404.711539 403.350862 316.45205 512.127029 316.45205 620.904533 316.45205 709.401665 404.710208 709.401665 513.202377 709.401665 621.694545 620.904533 709.960692 512.127029 709.960692L512.127029 709.960692ZM512.127029 381.320459C439.219585 381.320459 379.900137 440.485899 379.900137 513.202377 379.900137 585.928174 439.219585 645.093616 512.127029 645.093616 585.045169 645.093616 644.365953 585.928174 644.365953 513.202377 644.365953 440.485899 585.045169 381.320459 512.127029 381.320459L512.127029 381.320459Z" p-id="1756"></path><path d="M586.616306 101.403765 586.616306 144.715947C586.616306 176.518337 605.658486 204.921318 635.10761 217.092882 644.688204 221.056863 654.792955 223.056829 665.162459 223.056829 686.146163 223.056829 705.870285 214.907833 720.697807 200.113144L748.537017 172.351963 853.871392 277.414096 826.04154 305.175277C803.497396 327.662246 796.815718 361.17566 809.018439 390.549329 821.211798 419.932321 849.695509 438.912025 881.574213 438.912025L923.656617 438.912025 923.656617 587.502048 881.574213 587.502048C849.695509 587.502048 821.211798 606.481754 809.018439 635.855424 796.81438 665.239746 803.497396 698.750496 826.04154 721.237465L853.871392 748.999977 748.537017 854.063443 720.697807 826.30093C705.870285 811.507573 686.146163 803.357244 665.162459 803.357244 654.792955 803.357244 644.688204 805.358543 635.10761 809.322522 605.658486 821.482104 586.616306 849.895736 586.616306 881.696794L586.616306 923.660133 437.649786 923.660133 437.649786 881.696794C437.649786 849.894405 418.616964 821.482104 389.16784 809.321191 379.588583 805.358543 369.473135 803.357244 359.102295 803.357244 338.130624 803.357244 318.395805 811.507573 303.569622 826.30093L275.727736 854.063443 170.394699 748.999977 198.225887 721.237465C220.768696 698.750496 227.450373 665.239746 215.247653 635.866077 203.054292 606.481754 174.570581 587.502048 142.69054 587.502048L100.617496 587.502048 100.617496 438.912025 142.69054 438.912025C174.570581 438.912025 203.055629 419.932321 215.247653 390.549329 227.450373 361.17566 220.768696 327.663577 198.225887 305.175277L170.394699 277.414096 275.727736 172.351963 303.569622 200.113144C318.397143 214.907833 338.130624 223.056829 359.102295 223.056829 369.473135 223.056829 379.579224 221.056863 389.157143 217.092882 418.616964 204.921318 437.649786 176.518337 437.649786 144.715947L437.649786 101.403765 586.616306 101.403765 586.616306 101.403765ZM586.616306 36.536689 437.649786 36.536689C401.877336 36.536689 372.612735 69.775806 372.612735 105.454296L372.612735 144.715947C372.612735 150.175242 369.316691 155.080618 364.273007 157.169797 362.605596 157.858201 360.849934 158.189753 359.102295 158.189753 355.59097 158.189753 352.13848 156.828924 349.552456 154.245745L321.711907 126.484565C309.06927 113.865604 292.399171 107.562116 275.7264 107.562116 259.054965 107.562116 242.394225 113.865604 229.742227 126.484565L124.399831 231.546698C99.114553 256.772636 99.114553 298.064878 124.399831 323.282826L152.240378 351.044008C156.10337 354.900134 157.254645 360.69897 155.167373 365.732174 153.078764 370.762713 148.152748 374.04628 142.69054 374.04628L103.319852 374.04628C67.559436 374.04628 35.581784 403.234867 35.581784 438.913356L35.581784 587.503381C35.581784 623.180539 67.559436 652.370457 103.319852 652.370457L142.69054 652.370457C148.152748 652.370457 153.078764 655.652691 155.167373 660.684563 157.254645 665.716436 156.10337 671.516603 152.240378 675.372729L124.399831 703.135243C99.114553 728.361179 99.114553 769.644101 124.399831 794.870039L229.742227 899.932172C242.394225 912.54048 259.054965 918.854621 275.7264 918.854621 292.399171 918.854621 309.06927 912.54048 321.711907 899.932172L349.552456 872.170992C352.137144 869.597133 355.59097 868.226984 359.102295 868.226984 360.849934 868.226984 362.604258 868.557204 364.273007 869.246939 369.315354 871.336118 372.612735 876.250816 372.612735 881.70079L372.612735 920.963773C372.612735 956.632941 401.877336 988.531202 437.649786 988.531202L586.616306 988.531202C622.387417 988.531202 651.652018 956.63161 651.652018 920.963773L651.652018 881.70079C651.652018 876.250816 654.938702 871.336118 659.991746 869.246939 661.659157 868.557204 663.416158 868.226984 665.162459 868.226984 668.673783 868.226984 672.12761 869.597133 674.712297 872.170992L702.543485 899.932172C715.196822 912.54048 731.866919 918.854621 748.538354 918.854621 765.20043 918.854621 781.881224 912.54048 794.523863 899.932172L899.86626 794.870039C925.151537 769.64277 925.151537 728.359848 899.86626 703.135243L872.025711 675.372729C868.162721 671.516603 867.011445 665.717767 869.098717 660.684563 871.185989 655.652691 876.112006 652.370457 881.574213 652.370457L920.946238 652.370457C956.706654 652.370457 988.684307 623.18187 988.684307 587.503381L988.684307 438.912025C988.684307 403.234867 956.706654 374.044949 920.946238 374.044949L881.574213 374.044949C876.112006 374.044949 871.185989 370.761382 869.098717 365.730842 867.011445 360.69897 868.162721 354.898801 872.025711 351.042675L899.86626 323.281495C925.151537 298.064878 925.151537 256.771305 899.86626 231.545367L794.523863 126.483233C781.881224 113.864273 765.20043 107.560785 748.538354 107.560785 731.866919 107.560785 715.196822 113.864273 702.543485 126.483233L674.712297 154.244414C672.12761 156.828924 668.67512 158.188421 665.162459 158.188421 663.416158 158.188421 661.660495 157.858201 659.993084 157.168465 654.94004 155.079286 651.652018 150.17391 651.652018 144.715947L651.652018 105.452964C651.652018 69.775806 622.387417 36.536689 586.616306 36.536689L586.616306 36.536689Z" p-id="1757"></path></svg>