<?xml version="1.0" encoding="UTF-8" standalone="no"?>
<!-- Created with Inkscape (http://www.inkscape.org/) -->

<svg
   xmlns:dc="http://purl.org/dc/elements/1.1/"
   xmlns:cc="http://creativecommons.org/ns#"
   xmlns:rdf="http://www.w3.org/1999/02/22-rdf-syntax-ns#"
   xmlns:svg="http://www.w3.org/2000/svg"
   xmlns="http://www.w3.org/2000/svg"
   xmlns:sodipodi="http://sodipodi.sourceforge.net/DTD/sodipodi-0.dtd"
   xmlns:inkscape="http://www.inkscape.org/namespaces/inkscape"
   id="svg3482"
   version="1.1"
   inkscape:version="0.48.2 r9819"
   width="628.02055"
   height="508.00518"
   xml:space="preserve"
   sodipodi:docname="fig04.pdf"><metadata
     id="metadata3488"><rdf:RDF><cc:Work
         rdf:about=""><dc:format>image/svg+xml</dc:format><dc:type
           rdf:resource="http://purl.org/dc/dcmitype/StillImage" /><dc:title></dc:title></cc:Work></rdf:RDF></metadata><defs
     id="defs3486" /><sodipodi:namedview
     pagecolor="#ffffff"
     bordercolor="#666666"
     borderopacity="1"
     objecttolerance="10"
     gridtolerance="10"
     guidetolerance="10"
     inkscape:pageopacity="0"
     inkscape:pageshadow="2"
     inkscape:window-width="1371"
     inkscape:window-height="817"
     id="namedview3484"
     showgrid="false"
     inkscape:zoom="0.46456218"
     inkscape:cx="314.01028"
     inkscape:cy="254.00259"
     inkscape:window-x="0"
     inkscape:window-y="0"
     inkscape:window-maximized="0"
     inkscape:current-layer="g3492" /><g
     id="g3490"
     inkscape:groupmode="layer"
     inkscape:label="fig04"
     transform="matrix(1.25,0,0,-1.25,0,508.00518)"><g
       id="g3492"><path
         d="m 102.445,402.404 378.2,0 c 6.718,0 12.125,-5.91 12.125,-13.25 l 0,-144.82 c 0,-7.34 -5.407,-13.25 -12.125,-13.25 l -378.2,0 c -6.715,0 -12.121,5.91 -12.121,13.25 l 0,144.82 c 0,7.34 5.406,13.25 12.121,13.25 z"
         style="fill:#dbe3e2;fill-opacity:1;fill-rule:nonzero;stroke:none"
         id="path3494" /><path
         d="m 90.324,214.111 130.914,0 0,-210.109 -130.914,0 0,210.109 z"
         style="fill:#b7c4c8;fill-opacity:1;fill-rule:nonzero;stroke:none"
         id="path3496" /><text
         transform="matrix(1,0,0,-1,98.994788,355.53305)"
         id="text3498"><tspan
           style="fill:#000000;fill-opacity:1;fill-rule:nonzero;stroke:none;font-family:Times New Roman Bold;font-variant:normal;font-weight:bold;font-size:19.2;writing-mode:lr;-inkscape-font-specification:TimesNewRomanPS-BoldMT"
           x="0 14.9184 23.424 33.024"
           y="0"
           sodipodi:role="line"
           id="tspan3500">Heap</tspan></text>
<text
         transform="matrix(1,0,0,-1,93.555457,195.52491)"
         id="text3502"><tspan
           style="fill:#0b2822;fill-opacity:1;fill-rule:nonzero;stroke:none;font-family:Times New Roman Bold;font-variant:normal;font-weight:bold;font-size:19.2;writing-mode:lr;-inkscape-font-specification:TimesNewRomanPS-BoldMT"
           x="0 10.6752 17.088 26.688 35.1936"
           y="0"
           sodipodi:role="line"
           id="tspan3504">Stack</tspan></text>
<g
         id="g3506"
         transform="matrix(1,0,0,-1,0,406.40414)"><path
           d="m 72.543,245.629 0,-43.641"
           style="fill:none;stroke:#000000;stroke-opacity:1;stroke-width:2.4;stroke-linecap:butt;stroke-linejoin:miter;stroke-miterlimit:4;stroke-dasharray:none"
           id="path3508" /></g><path
         d="m 66.734,191.861 5.786,15.731 5.789,-15.731 c -3.418,2.512 -8.09,2.496 -11.575,0 z"
         style="fill:#000000;fill-opacity:1;fill-rule:evenodd;stroke:none"
         id="path3510" /><text
         transform="matrix(1,0,0,-1,3.853906,69.457873)"
         id="text3512"><tspan
           style="fill:#000000;fill-opacity:1;fill-rule:nonzero;stroke:none;font-family:Times New Roman;font-variant:normal;font-weight:normal;font-size:17.6;writing-mode:lr;-inkscape-font-specification:TimesNewRomanPSMT"
           x="0 13.6928 21.4896 26.3472"
           y="0"
           sodipodi:role="line"
           id="tspan3514">main</tspan><tspan
           style="fill:#000000;fill-opacity:1;fill-rule:nonzero;stroke:none;font-family:Times New Roman;font-variant:normal;font-weight:normal;font-size:17.6;writing-mode:lr;-inkscape-font-specification:TimesNewRomanPSMT"
           x="56.2380544 61.1132544 68.8924544 75.7388544"
           y="52.29407"
           sodipodi:role="line"
           id="tspan3516">test</tspan><tspan
           style="fill:#000000;fill-opacity:1;fill-rule:nonzero;stroke:none;font-family:Times New Roman;font-variant:normal;font-weight:normal;font-size:17.6;writing-mode:lr;-inkscape-font-specification:TimesNewRomanPSMT"
           x="51.881016 60.681016 68.477816 73.353016"
           y="23.370565"
           sodipodi:role="line"
           id="tspan3518">date</tspan><tspan
           style="fill:#000000;fill-opacity:1;fill-rule:nonzero;stroke:none;font-family:Times New Roman;font-variant:normal;font-weight:normal;font-size:17.6;writing-mode:lr;-inkscape-font-specification:TimesNewRomanPSMT"
           x="65.2271136 74.0271136"
           y="-6.5137072"
           sodipodi:role="line"
           id="tspan3520">d1</tspan><tspan
           style="fill:#000000;fill-opacity:1;fill-rule:nonzero;stroke:none;font-family:Times New Roman;font-variant:normal;font-weight:normal;font-size:17.6;writing-mode:lr;-inkscape-font-specification:TimesNewRomanPSMT"
           x="63.80914496 72.60914496"
           y="-35.606085"
           sodipodi:role="line"
           id="tspan3522">d2</tspan></text>
<g
         id="g3524"
         transform="matrix(1,0,0,-1,0,406.40414)"><path
           d="m 96.789,371.203 116.367,0 0,25.859 -116.367,0 0,-25.859 z"
           style="fill:none;stroke:#000000;stroke-opacity:1;stroke-width:0.8;stroke-linecap:butt;stroke-linejoin:miter;stroke-miterlimit:4;stroke-dasharray:none"
           id="path3526" /></g><text
         transform="matrix(1,0,0,-1,128.44812,16.446227)"
         id="text3528"><tspan
           style="fill:#000000;fill-opacity:1;fill-rule:nonzero;stroke:none;font-family:Times New Roman;font-variant:normal;font-weight:normal;font-size:17.6;writing-mode:lr;-inkscape-font-specification:TimesNewRomanPSMT"
           x="0 8.1488 16.9488 25.7488 34.5488 43.3488"
           y="0"
           sodipodi:role="line"
           id="tspan3530">110925</tspan></text>
<g
         id="g3532"
         transform="matrix(1,0,0,-1,0,406.40414)"><path
           d="m 96.789,341.602 116.367,0 0,25.859 -116.367,0 0,-25.859 z"
           style="fill:none;stroke:#000000;stroke-opacity:1;stroke-width:0.8;stroke-linecap:butt;stroke-linejoin:miter;stroke-miterlimit:4;stroke-dasharray:none"
           id="path3534" /></g><g
         id="g3536"
         transform="matrix(1,0,0,-1,0,406.40414)"><path
           d="m 96.789,312 116.367,0 0,25.859 -116.367,0 0,-25.859 z"
           style="fill:none;stroke:#000000;stroke-opacity:1;stroke-width:0.8;stroke-linecap:butt;stroke-linejoin:miter;stroke-miterlimit:4;stroke-dasharray:none"
           id="path3538" /></g><g
         id="g3540"
         transform="matrix(1,0,0,-1,0,406.40414)"><path
           d="m 96.789,282.402 116.367,0 0,25.859 -116.367,0 0,-25.859 z"
           style="fill:none;stroke:#000000;stroke-opacity:1;stroke-width:0.8;stroke-linecap:butt;stroke-linejoin:miter;stroke-miterlimit:4;stroke-dasharray:none"
           id="path3542" /></g><text
         transform="matrix(1,0,0,-1,150.60281,46.046227)"
         id="text3544"><tspan
           style="fill:#000000;fill-opacity:1;fill-rule:nonzero;stroke:none;font-family:Times New Roman;font-variant:normal;font-weight:normal;font-size:17.6;writing-mode:lr;-inkscape-font-specification:TimesNewRomanPSMT"
           x="0"
           y="0"
           id="tspan3546">9</tspan><tspan
           style="fill:#000000;fill-opacity:1;fill-rule:nonzero;stroke:none;font-family:Times New Roman;font-variant:normal;font-weight:normal;font-size:17.6;writing-mode:lr;-inkscape-font-specification:TimesNewRomanPSMT"
           x="-22.1460976 -13.3460976 -4.5460976 4.2539024 13.0539024 21.8539024"
           y="-29.182208"
           sodipodi:role="line"
           id="tspan3548">587934</tspan><tspan
           style="fill:#000000;fill-opacity:1;fill-rule:nonzero;stroke:none;font-family:Times New Roman;font-variant:normal;font-weight:normal;font-size:17.6;writing-mode:lr;-inkscape-font-specification:TimesNewRomanPSMT"
           x="-22.02148819 -13.22148819 -4.42148819 4.37851181 13.17851181 21.97851181"
           y="-59.858357"
           sodipodi:role="line"
           id="tspan3550">354752</tspan></text>
<g
         id="g3552"
         transform="matrix(1,0,0,-1,0,406.40414)"><path
           d="m 96.789,252.801 116.367,0 0,25.859 -116.367,0 0,-25.859 z"
           style="fill:none;stroke:#000000;stroke-opacity:1;stroke-width:0.8;stroke-linecap:butt;stroke-linejoin:miter;stroke-miterlimit:4;stroke-dasharray:3.2,3.2;stroke-dashoffset:0"
           id="path3554" /></g><path
         d="m 289.121,386.775 78.387,0 0,-21.012 -78.387,0 0,21.012 z"
         style="fill:#93a7ac;fill-opacity:1;fill-rule:nonzero;stroke:none"
         id="path3556" /><path
         d="m 289.121,364.373 78.387,0 0,-21.012 -78.387,0 0,21.012 z"
         style="fill:#93a7ac;fill-opacity:1;fill-rule:nonzero;stroke:none"
         id="path3558" /><path
         d="m 289.121,341.974 78.387,0 0,-21.012 -78.387,0 0,21.012 z"
         style="fill:#93a7ac;fill-opacity:1;fill-rule:nonzero;stroke:none"
         id="path3560" /><path
         d="m 289.121,308.373 78.387,0 0,-21.012 -78.387,0 0,21.012 z"
         style="fill:#93a7ac;fill-opacity:1;fill-rule:nonzero;stroke:none"
         id="path3562" /><path
         d="m 289.121,285.974 78.387,0 0,-21.012 -78.387,0 0,21.012 z"
         style="fill:#93a7ac;fill-opacity:1;fill-rule:nonzero;stroke:none"
         id="path3564" /><path
         d="m 289.121,263.572 78.387,0 0,-21.008 -78.387,0 0,21.008 z"
         style="fill:#93a7ac;fill-opacity:1;fill-rule:nonzero;stroke:none"
         id="path3566" /><path
         d="m 398.477,375.904 78.387,0 0,-21.012 -78.387,0 0,21.012 z"
         style="fill:#93a7ac;fill-opacity:1;fill-rule:nonzero;stroke:none"
         id="path3568" /><g
         id="g3570"
         transform="matrix(1,0,0,-1,0,406.40414)"><path
           d="m 212.348,381.395 285.269,0 0,-341.836 -20.203,0"
           style="fill:none;stroke:#000000;stroke-opacity:1;stroke-width:1.6;stroke-linecap:butt;stroke-linejoin:miter;stroke-miterlimit:4;stroke-dasharray:none"
           id="path3572" /></g><path
         d="m 485.785,362.974 -10.492,3.856 10.492,3.859 c -1.676,-2.277 -1.668,-5.394 0,-7.715 z"
         style="fill:#000000;fill-opacity:1;fill-rule:evenodd;stroke:none"
         id="path3574" /><g
         id="g3576"
         transform="matrix(1,0,0,-1,0,406.40414)"><path
           d="m 212.348,325.395 219.668,0 0,-221.836 -63.403,0"
           style="fill:none;stroke:#000000;stroke-opacity:1;stroke-width:1.6;stroke-linecap:butt;stroke-linejoin:miter;stroke-miterlimit:4;stroke-dasharray:none"
           id="path3578" /></g><path
         d="m 376.984,298.974 -10.488,3.856 10.488,3.859 c -1.675,-2.277 -1.668,-5.394 0,-7.715 z"
         style="fill:#000000;fill-opacity:1;fill-rule:evenodd;stroke:none"
         id="path3580" /><g
         id="g3582"
         transform="matrix(1,0,0,-1,0,406.40414)"><path
           d="m 212.348,294.992 42.07,0 0,-273.035 32.594,0"
           style="fill:none;stroke:#000000;stroke-opacity:1;stroke-width:1.6;stroke-linecap:butt;stroke-linejoin:miter;stroke-miterlimit:4;stroke-dasharray:none"
           id="path3584" /></g><path
         d="m 278.645,388.318 10.488,-3.855 -10.488,-3.86 c 1.675,2.278 1.664,5.395 0,7.715 z"
         style="fill:#000000;fill-opacity:1;fill-rule:evenodd;stroke:none"
         id="path3586" /><text
         transform="matrix(1,0,0,-1,321.89053,291.72391)"
         id="text3588"><tspan
           style="fill:#000000;fill-opacity:1;fill-rule:nonzero;stroke:none;font-family:Times New Roman;font-variant:normal;font-weight:normal;font-size:17.6;writing-mode:lr;-inkscape-font-specification:TimesNewRomanPSMT"
           x="0 8.8"
           y="0"
           sodipodi:role="line"
           id="tspan3590">22</tspan><tspan
           style="fill:#000000;fill-opacity:1;fill-rule:nonzero;stroke:none;font-family:Times New Roman;font-variant:normal;font-weight:normal;font-size:17.6;writing-mode:lr;-inkscape-font-specification:TimesNewRomanPSMT"
           x="-0.84218816 7.95781184"
           y="23.451789"
           sodipodi:role="line"
           id="tspan3592">12</tspan><tspan
           style="fill:#000000;fill-opacity:1;fill-rule:nonzero;stroke:none;font-family:Times New Roman;font-variant:normal;font-weight:normal;font-size:17.6;writing-mode:lr;-inkscape-font-specification:TimesNewRomanPSMT"
           x="-9.64218816 -0.84218816 7.95781184 16.75781184"
           y="45.27109"
           sodipodi:role="line"
           id="tspan3594">1982</tspan><tspan
           style="fill:#000000;fill-opacity:1;fill-rule:nonzero;stroke:none;font-family:Times New Roman;font-variant:normal;font-weight:normal;font-size:17.6;writing-mode:lr;-inkscape-font-specification:TimesNewRomanPSMT"
           x="0.00000704 8.80000704"
           y="-78.399992"
           sodipodi:role="line"
           id="tspan3596">10</tspan><tspan
           style="fill:#000000;fill-opacity:1;fill-rule:nonzero;stroke:none;font-family:Times New Roman;font-variant:normal;font-weight:normal;font-size:17.6;writing-mode:lr;-inkscape-font-specification:TimesNewRomanPSMT"
           x="-0.84218112 7.95781888"
           y="-54.948203"
           sodipodi:role="line"
           id="tspan3598">10</tspan><tspan
           style="fill:#000000;fill-opacity:1;fill-rule:nonzero;stroke:none;font-family:Times New Roman;font-variant:normal;font-weight:normal;font-size:17.6;writing-mode:lr;-inkscape-font-specification:TimesNewRomanPSMT"
           x="-9.64218112 -0.84218112 7.95781888 16.75781888"
           y="-33.128902"
           sodipodi:role="line"
           id="tspan3600">1958</tspan></text>
<text
         transform="matrix(1,0,0,-1,223.61438,135.34418)"
         id="text3602"><tspan
           style="fill:#0000ff;fill-opacity:1;fill-rule:nonzero;stroke:none;font-family:Microsoft YaHei;font-variant:normal;font-weight:normal;font-size:16;writing-mode:lr;-inkscape-font-specification:MicrosoftYaHei"
           x="0 14.992 24.368 29.104 45.104 61.104 77.104 93.104 109.104 125.104 141.104 157.104 173.104 189.104 209.856 214.096 218.832 234.832"
           y="0"
           sodipodi:role="line"
           id="tspan3604">m1方法执行完毕，局部变量i释放</tspan></text>
</g></g></svg>